<svg id="Capa_1" enable-background="new 0 0 512 512" height="512" viewBox="0 0 512 512" width="512" xmlns="http://www.w3.org/2000/svg"><g><path d="m512 256.416h-60.048v-105.488h-180.952v-120.928h30.036v-30h-90.072v30h30.036v120.928h-180.952v105.488h-60.048v150.096h60.048v105.488h391.904v-105.488h60.048zm-30 30v30.048h-30.048v-30.048zm-421.952 0v30.048h-30.048v-30.048zm-30.048 90.096v-30.048h30.048v30.048zm391.952 105.488h-331.904v-301.072h331.904zm30-105.488v-30.048h30.048v30.048z"/><path d="m391.952 361.952h-271.904v90.048h271.904zm-120.952 30h30.477v30.048h-30.477zm-30 30.048h-30.476v-30.048h30.476zm-90.952-30.048h30.477v30.048h-30.477zm211.904 30.048h-30.476v-30.048h30.476z"/><path d="m180.512 331.904c33.34 0 60.464-27.124 60.464-60.464s-27.124-60.464-60.464-60.464-60.464 27.124-60.464 60.464 27.124 60.464 60.464 60.464zm0-90.928c16.798 0 30.464 13.666 30.464 30.464s-13.666 30.464-30.464 30.464-30.464-13.666-30.464-30.464 13.666-30.464 30.464-30.464z"/><path d="m331.488 331.904c33.34 0 60.464-27.124 60.464-60.464s-27.124-60.464-60.464-60.464-60.464 27.124-60.464 60.464 27.124 60.464 60.464 60.464zm0-90.928c16.798 0 30.464 13.666 30.464 30.464s-13.666 30.464-30.464 30.464-30.464-13.666-30.464-30.464 13.666-30.464 30.464-30.464z"/></g></svg>